<?xml version="1.0" encoding="UTF-8" standalone="no"?>
<svg
   xmlns:dc="http://purl.org/dc/elements/1.1/"
   xmlns:cc="http://creativecommons.org/ns#"
   xmlns:rdf="http://www.w3.org/1999/02/22-rdf-syntax-ns#"
   xmlns:svg="http://www.w3.org/2000/svg"
   xmlns="http://www.w3.org/2000/svg"
   xmlns:sodipodi="http://sodipodi.sourceforge.net/DTD/sodipodi-0.dtd"
   xmlns:inkscape="http://www.inkscape.org/namespaces/inkscape"
   width="210mm"
   height="297mm"
   viewBox="0 0 210 297"
   version="1.1"
   id="svg8"
   inkscape:version="1.0.1 (3bc2e813f5, 2020-09-07)"
   sodipodi:docname="helmet.svg">
  <title
     id="title42">helmet-template</title>
  <defs
     id="defs2">
    <inkscape:path-effect
       effect="bspline"
       id="path-effect34"
       is_visible="true"
       lpeversion="1"
       weight="33.333333"
       steps="2"
       helper_size="0"
       apply_no_weight="true"
       apply_with_weight="true"
       only_selected="false" />
    <inkscape:path-effect
       effect="bspline"
       id="path-effect20"
       is_visible="true"
       lpeversion="1"
       weight="33.333333"
       steps="2"
       helper_size="0"
       apply_no_weight="true"
       apply_with_weight="true"
       only_selected="false" />
    <inkscape:path-effect
       effect="bspline"
       id="path-effect12"
       is_visible="true"
       lpeversion="1"
       weight="33.333333"
       steps="2"
       helper_size="0"
       apply_no_weight="true"
       apply_with_weight="true"
       only_selected="false" />
  </defs>
  <sodipodi:namedview
     id="base"
     pagecolor="#ffffff"
     bordercolor="#666666"
     borderopacity="1.0"
     inkscape:pageopacity="0.0"
     inkscape:pageshadow="2"
     inkscape:zoom="4"
     inkscape:cx="205.88084"
     inkscape:cy="312.34856"
     inkscape:document-units="mm"
     inkscape:current-layer="layer1"
     inkscape:document-rotation="0"
     showgrid="false"
     inkscape:lockguides="false"
     inkscape:window-width="1366"
     inkscape:window-height="705"
     inkscape:window-x="-8"
     inkscape:window-y="-8"
     inkscape:window-maximized="1" />
  <metadata
     id="metadata5">
    <rdf:RDF>
      <cc:Work
         rdf:about="">
        <dc:format>image/svg+xml</dc:format>
        <dc:type
           rdf:resource="http://purl.org/dc/dcmitype/StillImage" />
        <dc:title>helmet-template</dc:title>
      </cc:Work>
    </rdf:RDF>
  </metadata>
  <g
     inkscape:label="Layer 1"
     inkscape:groupmode="layer"
     id="layer1">
    <path
       style="fill:none;stroke:#000000;stroke-width:0.264583px;stroke-linecap:butt;stroke-linejoin:miter;stroke-opacity:1"
       d="m 12.659683,164.32647 c 0.685938,-6.92234 2.80623,-17.5238 8.356666,-27.06563 5.550437,-9.54182 14.530326,-18.02283 24.321564,-24.25927 9.791239,-6.23644 20.3925,-10.2275 31.99228,-12.72205 11.59978,-2.494546 24.196577,-3.492312 38.665097,-1.496602 14.46852,1.995712 30.80693,6.984532 43.84102,14.593052 13.03408,7.60852 22.76229,17.8356 29.31046,27.12789 6.54817,9.29229 9.9157,17.64875 12.16072,28.99892 2.24502,11.35017 3.36751,25.69306 1.49655,39.66256 -1.87097,13.9695 -6.73518,27.56434 -9.47911,34.61126 -2.74392,7.04692 -3.36754,7.54582 -5.11359,6.98464 -1.74604,-0.56118 -4.61463,-2.18256 -8.6683,-3.61698 -4.05367,-1.43443 -9.29193,-2.68163 -15.46604,-2.55696 -6.17411,0.12467 -13.28319,1.62132 -18.83367,3.7417 -5.55048,2.12038 -9.54154,4.86422 -14.84253,9.35446 -5.30099,4.49025 -11.91117,10.72627 -22.38819,11.78652 -10.477021,1.06024 -24.819909,-3.05554 -32.802652,-9.60367 -7.982742,-6.54813 -9.604111,-15.52802 -7.982694,-24.00966 1.621418,-8.48164 6.485522,-16.46376 8.60594,-24.32155 2.120418,-7.85778 1.496815,-15.59046 -0.748192,-21.88924 -2.245006,-6.29877 -6.111351,-11.16288 -12.160638,-14.15649 -6.049288,-2.9936 -14.28086,-4.11609 -22.88717,-3.43013 -8.606311,0.68596 -17.58639,3.18042 -22.450746,2.80643 -4.864357,-0.374 -5.612712,-3.61687 -4.926775,-10.5392 z"
       id="path32"
       inkscape:path-effect="#path-effect34"
       inkscape:original-d="m 11.22532,168.00563 c 2.120606,-10.60144 4.240898,-21.2029 6.361015,-31.80507 8.980706,-8.48127 17.960595,-16.96228 26.940768,-25.44407 10.602169,-3.99104 21.203431,-7.9821 31.805072,-11.973671 12.59782,-0.997562 25.194615,-1.995327 37.791905,-2.993418 16.33968,4.989389 32.67809,9.978219 49.01724,14.967089 9.72908,10.22799 19.45728,20.45508 29.18583,30.68254 3.36793,8.35706 6.73546,16.71352 10.10279,25.06988 1.12282,14.34402 2.2453,28.68691 3.36759,43.0304 -4.86414,13.59564 -9.72835,27.19048 -14.59292,40.78532 -0.62337,0.49918 -1.24699,0.99808 -1.87088,1.49672 -2.86848,-1.6212 -5.73707,-3.24258 -8.60608,-4.86431 -5.23832,-1.24702 -10.47659,-2.49422 -15.71544,-3.74177 -7.10925,1.49701 -14.21833,2.99366 -21.32811,4.49013 -3.99104,2.74428 -7.9821,5.48813 -11.97368,8.23188 -6.61035,6.2367 -13.22053,12.47273 -19.8314,18.70888 -14.343482,-4.11576 -28.686368,-8.23155 -43.03039,-12.34784 -1.621205,-8.98018 -3.242573,-17.96007 -4.864305,-26.94077 4.864666,-7.98235 9.728773,-15.96447 14.592916,-23.94736 -0.623378,-7.73289 -1.246981,-15.46557 -1.870887,-23.19899 -3.866314,-4.86414 -7.732657,-9.72825 -11.599498,-14.59291 -8.2318,-1.1223 -16.463372,-2.24479 -24.695704,-3.36761 -8.980172,2.49483 -17.96025,4.9893 -26.940768,7.48355 -0.74809,-3.2426 -1.496444,-6.48547 -2.245064,-9.7286 z"
       sodipodi:nodetypes="cccccccccccccccccccccccc" />
    <path
       style="fill:#00ffff;stroke:#00ffff;stroke-width:0.374176"
       d="m 102.76003,230.4811 c -3.758407,-0.3583 -7.566227,-1.39557 -12.632507,-3.44117 -8.89839,-3.59287 -14.55386,-8.61967 -17.2552,-15.33709 -1.00916,-2.50948 -1.39831,-9.76671 -0.72962,-13.60661 0.24558,-1.41026 2.12998,-7.10859 4.18755,-12.66296 2.05756,-5.55438 3.98832,-11.03506 4.29055,-12.17929 0.80568,-3.05017 0.79352,-15.86935 -0.0179,-18.91841 -0.80453,-3.023 -2.326788,-8.83304 -4.2216,-11.3482 -4.47414,-5.93894 -8.562284,-8.07203 -21.75521,-10.26946 -11.752509,-1.95752 -10.096767,-1.73311 -17.537048,-2.27822 -7.365303,-0.53961 -15.37353,0.50776 -19.234437,-0.27356 -1.632607,-0.33038 -1.986609,-4.13099 -0.798483,-11.72709 1.067819,-6.82694 0.950361,-9.50443 5.402035,-17.61739 9.140163,-16.657495 26.816593,-28.19648 51.037893,-35.53829 10.07124,-3.05273 19.70542,-4.36906 31.972737,-4.36849 11.14783,5.3e-4 17.43704,0.7422 27.74824,3.27231 26.21434,6.43232 47.211,20.59209 60.71351,40.94408 4.44233,6.6958 7.57627,13.83759 9.54923,21.76128 2.83933,11.40314 3.57342,18.79588 3.2824,33.05569 -0.22328,10.94065 -0.6651,14.23998 -3.25697,24.32153 -1.9791,7.69809 -6.38525,20.93794 -8.16187,24.52526 -1.1382,2.29822 -1.55432,2.80972 -2.362,2.90339 -0.53923,0.0625 -3.14911,-0.71486 -5.79975,-1.72755 -6.81541,-2.60389 -9.39772,-3.12877 -16.41885,-3.33734 -7.62833,-0.2266 -13.20518,0.46447 -18.76689,2.32553 -5.66004,1.89397 -8.9584,3.77004 -16.33661,9.29208 -10.48539,7.84755 -15.2832,10.80239 -19.15221,11.79531 -2.15482,0.55304 -9.92749,0.79878 -13.74698,0.43466 z"
       id="path218"
       sodipodi:nodetypes="sssssscssssssssssssssssssssss" />
    <path
       id="path247"
       style="fill:#808000;stroke:#ff0000;stroke-width:0.0233861"
       d="M 40.577943,51.255961 C 35.298052,49.848071 24.004297,50.803973 23.440935,50.787328 21.693512,50.7357 14.127944,50.509049 13.175082,50.532849 c -1.116427,0.02788 -4.7036449,0.31907 -5.459344,0.984212 -0.6589363,0.579975 -0.2582272,4.039148 0.228855,4.322975 0.3817511,0.22245 4.52867,0.161044 7.159811,0.10268 2.415646,-0.05358 6.721813,-0.241441 9.34187,-0.227426 3.623668,0.01938 6.377319,0.442337 12.713786,0.880609 5.564719,-0.181862 4.056991,11.891093 5.486394,14.159136 l 5.61287,-1.437597 3.775269,-11.870181 c -0.230877,-1.287583 -5.384909,-4.572258 -11.45665,-6.191296 z"
       sodipodi:nodetypes="sssssssccccs" />
  </g>
</svg>
